<svg xmlns="http://www.w3.org/2000/svg" xmlns:xlink="http://www.w3.org/1999/xlink" width="1080" zoomAndPan="magnify" viewBox="0 0 810 809.999993" height="1080" preserveAspectRatio="xMidYMid meet" version="1.0"><defs><clipPath id="id1"><path d="M 416 245.0625 L 426 245.0625 L 426 312 L 416 312 Z M 416 245.0625 " clip-rule="nonzero"/></clipPath><clipPath id="id2"><path d="M 244 414 L 566 414 L 566 565.3125 L 244 565.3125 Z M 244 414 " clip-rule="nonzero"/></clipPath></defs><path fill="rgb(0%, 0%, 0%)" d="M 330.300781 320.792969 C 332.933594 320.792969 334.816406 318.53125 334.816406 316.269531 L 334.816406 280.855469 C 334.816406 278.21875 332.558594 276.332031 330.300781 276.332031 C 328.042969 276.332031 325.785156 278.59375 325.785156 280.855469 L 325.785156 316.269531 C 325.40625 318.90625 327.664062 320.792969 330.300781 320.792969 Z M 330.300781 320.792969 " fill-opacity="1" fill-rule="nonzero"/><path fill="rgb(0%, 0%, 0%)" d="M 355.890625 303.082031 C 358.523438 303.082031 360.40625 300.824219 360.40625 298.5625 L 360.40625 255.234375 C 360.40625 252.597656 358.148438 250.714844 355.890625 250.714844 C 353.632812 250.714844 351.375 252.972656 351.375 255.234375 L 351.375 298.5625 C 350.996094 301.199219 353.253906 303.082031 355.890625 303.082031 Z M 355.890625 303.082031 " fill-opacity="1" fill-rule="nonzero"/><path fill="rgb(0%, 0%, 0%)" d="M 381.855469 303.082031 C 384.492188 303.082031 386.371094 300.824219 386.371094 298.5625 L 386.371094 276.332031 C 386.371094 273.695312 384.113281 271.8125 381.855469 271.8125 C 379.597656 271.8125 377.339844 274.074219 377.339844 276.332031 L 377.339844 298.5625 C 377.339844 301.199219 379.222656 303.082031 381.855469 303.082031 Z M 381.855469 303.082031 " fill-opacity="1" fill-rule="nonzero"/><g clip-path="url(#id1)"><path fill="rgb(0%, 0%, 0%)" d="M 420.992188 311.371094 C 423.628906 311.371094 425.507812 309.113281 425.507812 306.851562 L 425.507812 249.582031 C 425.507812 246.945312 423.25 245.0625 420.992188 245.0625 C 418.734375 245.0625 416.476562 247.324219 416.476562 249.582031 L 416.476562 306.472656 C 416.476562 309.488281 418.359375 311.371094 420.992188 311.371094 Z M 420.992188 311.371094 " fill-opacity="1" fill-rule="nonzero"/></g><path fill="rgb(0%, 0%, 0%)" d="M 377.714844 424.777344 C 408.953125 424.777344 434.164062 399.535156 434.164062 368.265625 C 434.164062 336.992188 408.953125 311.75 377.714844 311.75 C 346.480469 311.75 321.269531 336.992188 321.269531 368.265625 C 321.269531 399.535156 346.480469 424.777344 377.714844 424.777344 Z M 357.769531 381.828125 C 357.769531 379.191406 360.03125 377.304688 362.289062 377.304688 C 364.546875 377.304688 366.804688 379.566406 366.804688 381.828125 L 366.804688 385.21875 C 366.804688 388.609375 369.4375 391.246094 372.824219 391.246094 L 381.480469 391.246094 C 384.867188 391.246094 387.5 388.609375 387.5 385.21875 L 387.5 378.058594 C 387.5 376.929688 387.125 375.046875 384.492188 373.914062 L 366.425781 370.902344 C 360.78125 369.015625 357.019531 363.742188 357.019531 358.089844 L 357.019531 350.554688 C 357.019531 342.265625 363.792969 335.484375 372.070312 335.109375 L 372.070312 331.71875 C 372.070312 329.082031 374.328125 327.195312 376.585938 327.195312 C 378.84375 327.195312 381.101562 329.457031 381.101562 331.71875 L 381.101562 334.730469 C 389.382812 335.109375 396.15625 341.890625 396.15625 350.179688 L 396.15625 353.570312 C 396.15625 356.207031 393.898438 358.089844 391.640625 358.089844 C 389.382812 358.089844 387.125 355.832031 387.125 353.570312 L 387.125 350.179688 C 387.125 346.789062 384.492188 344.152344 381.101562 343.773438 L 372.449219 343.773438 C 369.0625 343.773438 366.425781 346.410156 366.425781 349.800781 L 366.425781 357.335938 C 366.425781 358.84375 367.554688 360.351562 369.0625 361.105469 L 387.5 364.496094 C 393.144531 366.378906 396.910156 371.65625 396.53125 377.683594 L 396.53125 384.839844 C 396.53125 393.128906 389.757812 399.910156 381.480469 400.289062 L 381.480469 404.054688 C 381.480469 406.695312 379.222656 408.578125 376.964844 408.578125 C 374.707031 408.578125 372.449219 406.316406 372.449219 404.054688 L 372.449219 400.289062 C 364.167969 399.910156 357.394531 393.128906 357.394531 384.839844 Z M 357.769531 381.828125 " fill-opacity="1" fill-rule="nonzero"/><path fill="rgb(0%, 0%, 0%)" d="M 519.214844 534.417969 C 519.214844 537.054688 521.472656 539.316406 524.105469 539.316406 C 526.742188 539.316406 529 537.054688 529 534.417969 C 529 531.78125 526.742188 529.519531 524.105469 529.519531 C 521.472656 529.894531 519.214844 531.78125 519.214844 534.417969 Z M 519.214844 534.417969 " fill-opacity="1" fill-rule="nonzero"/><g clip-path="url(#id2)"><path fill="rgb(0%, 0%, 0%)" d="M 562.113281 556.269531 L 502.65625 556.269531 L 502.65625 452.28125 L 552.332031 452.28125 C 554.964844 452.28125 556.847656 450.023438 556.847656 447.761719 C 556.847656 445.5 554.589844 443.238281 552.332031 443.238281 L 502.65625 443.238281 L 502.65625 428.167969 C 502.65625 425.53125 500.398438 423.648438 498.140625 423.648438 C 495.882812 423.648438 493.625 425.910156 493.625 428.167969 L 493.625 443.238281 L 466.527344 443.238281 C 463.894531 443.238281 462.011719 445.125 462.011719 447.761719 L 462.011719 461.324219 L 453.359375 461.324219 L 425.886719 437.210938 C 425.132812 436.457031 424.003906 436.082031 422.875 436.082031 L 347.988281 436.082031 C 345.730469 436.082031 343.472656 437.964844 343.472656 440.226562 C 343.472656 440.601562 343.09375 443.238281 343.09375 443.238281 C 343.09375 450.023438 345.351562 456.425781 349.117188 461.703125 L 343.847656 461.703125 C 343.847656 461.703125 323.148438 429.675781 322.398438 428.546875 C 315.625 418.75 303.957031 411.96875 292.292969 415.734375 L 284.765625 418.375 C 282.507812 419.503906 281 422.140625 282.128906 424.402344 C 282.128906 424.402344 284.011719 427.792969 284.011719 427.792969 C 273.476562 422.140625 259.925781 421.386719 251.273438 430.054688 L 245.628906 436.082031 C 244.121094 438.34375 244.496094 441.355469 246.378906 442.863281 L 313.742188 489.207031 C 313.742188 489.207031 419.488281 528.765625 419.488281 528.765625 C 420.242188 528.765625 461.636719 528.765625 461.636719 528.765625 L 461.636719 536.300781 C 461.636719 538.9375 463.519531 540.820312 466.152344 540.820312 L 492.871094 540.820312 L 492.871094 560.789062 C 492.871094 563.429688 495.128906 565.3125 497.386719 565.3125 L 561.363281 565.3125 C 563.996094 565.3125 565.878906 563.050781 565.878906 560.789062 C 565.878906 558.53125 564.371094 556.269531 562.113281 556.269531 Z M 294.925781 424.402344 C 303.203125 421.765625 312.234375 428.546875 316.375 436.835938 L 326.535156 452.660156 L 299.441406 436.835938 L 292.667969 425.15625 Z M 462.011719 519.347656 L 422.121094 519.347656 L 318.257812 480.917969 L 256.164062 437.964844 L 257.667969 436.457031 C 264.066406 430.054688 274.980469 432.3125 282.507812 437.589844 L 322.773438 460.949219 L 338.578125 470.367188 C 339.332031 470.742188 340.085938 471.121094 340.835938 471.121094 L 408.199219 471.121094 C 410.832031 471.121094 412.714844 468.859375 412.714844 466.597656 C 412.714844 463.960938 410.457031 462.078125 408.199219 462.078125 L 365.296875 462.078125 C 358.148438 460.949219 352.878906 453.035156 352.125 445.878906 L 420.617188 445.878906 L 448.089844 469.992188 C 448.839844 470.742188 449.96875 471.121094 451.101562 471.121094 L 461.636719 471.121094 Z M 462.011719 519.347656 " fill-opacity="1" fill-rule="nonzero"/></g></svg>