<svg xmlns="http://www.w3.org/2000/svg" xmlns:xlink="http://www.w3.org/1999/xlink" width="1080" zoomAndPan="magnify" viewBox="0 0 810 809.999993" height="1080" preserveAspectRatio="xMidYMid meet" version="1.0"><path fill="rgb(0%, 0%, 0%)" d="M 405 243.367188 C 315.617188 243.367188 243 315.984375 243 405.367188 C 243 486.507812 302.847656 553.660156 380.792969 565.367188 L 389.25 566.648438 L 389.25 438.992188 L 350.980469 438.992188 L 350.980469 413.078125 L 389.25 413.078125 L 389.25 378.660156 C 389.25 357.46875 394.335938 343.507812 402.757812 334.753906 C 411.175781 325.996094 423.617188 321.578125 440.925781 321.578125 C 454.769531 321.578125 460.152344 322.417969 465.273438 323.046875 L 465.273438 344.257812 L 447.253906 344.257812 C 437.03125 344.257812 428.640625 349.964844 424.285156 357.5625 C 419.933594 365.160156 418.578125 374.234375 418.578125 383.480469 L 418.578125 413.0625 L 463.664062 413.0625 L 459.652344 438.980469 L 418.578125 438.980469 L 418.578125 566.851562 L 426.933594 565.714844 C 505.988281 554.992188 567 487.300781 567 405.367188 C 567 315.984375 494.382812 243.367188 405 243.367188 Z M 405 258.09375 C 486.425781 258.09375 552.273438 323.945312 552.273438 405.367188 C 552.273438 477.015625 500.992188 535.9375 433.304688 549.203125 L 433.304688 453.707031 L 472.28125 453.707031 L 480.835938 398.335938 L 433.304688 398.335938 L 433.304688 383.480469 C 433.304688 375.839844 434.703125 368.992188 437.058594 364.882812 C 439.414062 360.769531 441.683594 358.984375 447.253906 358.984375 L 480.003906 358.984375 L 480.003906 309.710938 L 473.617188 308.851562 C 469.199219 308.253906 459.117188 306.851562 440.925781 306.851562 C 421.023438 306.851562 403.9375 312.273438 392.140625 324.539062 C 380.347656 336.808594 374.523438 355.074219 374.523438 378.660156 L 374.523438 398.351562 L 336.253906 398.351562 L 336.253906 453.722656 L 374.523438 453.722656 L 374.523438 548.742188 C 307.925781 534.636719 257.726562 476.238281 257.726562 405.367188 C 257.726562 323.945312 323.574219 258.09375 405 258.09375 Z M 405 258.09375 " fill-opacity="1" fill-rule="nonzero"/></svg>