<svg xmlns="http://www.w3.org/2000/svg" xmlns:xlink="http://www.w3.org/1999/xlink" width="1080" zoomAndPan="magnify" viewBox="0 0 810 809.999993" height="1080" preserveAspectRatio="xMidYMid meet" version="1.0"><path fill="rgb(0%, 0%, 0%)" d="M 298.667969 498.796875 C 302.292969 500.480469 304.640625 504.152344 304.640625 508.148438 L 304.640625 521.449219 L 304.414062 521.449219 C 300.683594 521.449219 297.664062 524.46875 297.664062 528.199219 L 297.664062 560.25 C 297.664062 563.976562 300.683594 567 304.414062 567 C 308.148438 567 311.164062 563.976562 311.164062 560.25 L 311.164062 534.949219 C 412.976562 534.957031 374.117188 534.953125 383.28125 534.953125 C 383.292969 534.953125 383.300781 534.949219 383.3125 534.949219 L 383.523438 534.949219 L 383.523438 560.25 C 383.523438 563.976562 386.542969 567 390.273438 567 C 394.003906 567 397.023438 563.976562 397.023438 560.25 L 397.023438 528.199219 C 397.023438 524.46875 394.003906 521.449219 390.273438 521.449219 L 390.03125 521.449219 L 390.035156 500.691406 C 390.035156 489.972656 388.308594 480.257812 384.90625 471.820312 C 378.058594 454.84375 366.867188 444.488281 351.632812 441.035156 C 347.011719 439.984375 342.398438 437.257812 338.285156 433.136719 L 304.335938 399.195312 C 298.824219 393.683594 290.554688 391.507812 283.214844 393.289062 L 283.214844 321.328125 C 283.214844 310.222656 274.234375 301.21875 263.113281 301.21875 C 263.105469 301.21875 263.097656 301.21875 263.089844 301.21875 C 252.011719 301.230469 243 310.25 243 321.328125 L 243 424.78125 C 243 433.050781 244.859375 441.378906 248.523438 449.179688 C 258.882812 471.105469 277.175781 488.804688 298.667969 498.796875 Z M 256.5 321.328125 C 256.5 317.683594 259.460938 314.722656 263.105469 314.71875 L 263.113281 314.71875 C 266.746094 314.71875 269.714844 317.65625 269.714844 321.328125 L 269.714844 402.976562 C 264.207031 411.613281 265.222656 423.238281 272.753906 430.777344 L 315.359375 473.375 C 317.996094 476.011719 322.265625 476.011719 324.902344 473.375 C 327.539062 470.738281 327.539062 466.460938 324.902344 463.828125 L 282.300781 421.230469 C 279.101562 418.027344 278.871094 412.960938 281.628906 409.496094 C 281.675781 409.441406 281.726562 409.378906 281.773438 409.320312 C 281.9375 409.125 282.117188 408.929688 282.300781 408.742188 C 285.628906 405.410156 291.449219 405.398438 294.792969 408.742188 L 328.734375 442.679688 C 334.652344 448.601562 341.535156 452.585938 348.648438 454.199219 C 359.457031 456.648438 367.222656 464.066406 372.382812 476.871094 C 375.140625 483.695312 376.535156 491.710938 376.535156 500.691406 L 376.53125 521.449219 L 318.140625 521.449219 L 318.140625 508.148438 C 318.140625 498.917969 312.726562 490.441406 304.34375 486.546875 C 303.527344 486.171875 302.640625 485.734375 301.71875 485.265625 C 283.703125 476.097656 269.148438 461.230469 260.59375 443.125 C 257.917969 437.425781 256.5 431.082031 256.5 424.78125 Z M 256.5 321.328125 " fill-opacity="1" fill-rule="nonzero"/><path fill="rgb(0%, 0%, 0%)" d="M 546.886719 301.21875 C 535.800781 301.21875 526.785156 310.238281 526.785156 321.328125 L 526.785156 393.289062 C 519.453125 391.503906 511.175781 393.6875 505.664062 399.195312 L 471.707031 433.140625 C 467.601562 437.257812 462.988281 439.984375 458.375 441.035156 C 443.132812 444.488281 431.941406 454.84375 425.089844 471.820312 C 421.691406 480.257812 419.964844 489.972656 419.964844 500.691406 L 419.96875 521.449219 L 419.726562 521.449219 C 415.996094 521.449219 412.976562 524.46875 412.976562 528.199219 L 412.976562 560.25 C 412.976562 563.976562 415.996094 567 419.726562 567 C 423.457031 567 426.476562 563.976562 426.476562 560.25 L 426.476562 534.949219 L 426.6875 534.949219 C 426.699219 534.949219 426.707031 534.953125 426.71875 534.953125 C 435.886719 534.953125 397.023438 534.957031 498.835938 534.949219 L 498.835938 560.25 C 498.835938 563.976562 501.851562 567 505.585938 567 C 509.316406 567 512.335938 563.976562 512.335938 560.25 L 512.335938 528.199219 C 512.335938 524.46875 509.316406 521.449219 505.585938 521.449219 L 505.351562 521.449219 L 505.351562 508.148438 C 505.351562 504.152344 507.699219 500.480469 511.324219 498.800781 C 539.257812 485.804688 567 455.433594 567 424.78125 L 567 321.328125 C 567 310.238281 557.976562 301.21875 546.886719 301.21875 Z M 553.5 424.78125 C 553.5 449.472656 529.054688 475.785156 505.648438 486.550781 C 497.273438 490.441406 491.851562 498.917969 491.851562 508.148438 L 491.851562 521.449219 L 433.46875 521.449219 L 433.464844 500.691406 C 433.464844 491.710938 434.859375 483.695312 437.617188 476.871094 C 442.777344 464.066406 450.542969 456.648438 461.359375 454.199219 C 468.464844 452.585938 475.347656 448.601562 481.261719 442.683594 L 515.207031 408.742188 C 518.648438 405.292969 524.257812 405.300781 527.699219 408.742188 C 527.882812 408.929688 528.0625 409.125 528.226562 409.320312 C 528.28125 409.378906 528.324219 409.441406 528.371094 409.496094 C 531.128906 412.960938 530.902344 418.027344 527.699219 421.230469 L 485.097656 463.828125 C 482.460938 466.460938 482.460938 470.738281 485.097656 473.375 C 487.734375 476.011719 492.003906 476.011719 494.640625 473.375 L 537.246094 430.777344 C 544.777344 423.238281 545.792969 411.613281 540.285156 402.976562 L 540.285156 321.328125 C 540.285156 317.683594 543.242188 314.71875 546.886719 314.71875 C 550.535156 314.71875 553.5 317.683594 553.5 321.328125 Z M 553.5 424.78125 " fill-opacity="1" fill-rule="nonzero"/><path fill="rgb(0%, 0%, 0%)" d="M 383.558594 381.175781 C 367.25 364.867188 338.949219 367.898438 337.738281 368.023438 C 334.621094 368.382812 332.160156 370.84375 331.804688 373.960938 C 331.667969 375.160156 328.632812 403.457031 344.957031 419.777344 C 356.707031 431.535156 374.632812 433.28125 384.230469 433.28125 C 385.480469 433.28125 386.527344 433.25 387.464844 433.207031 L 398.296875 444.035156 L 398.296875 470.625 C 398.296875 474.351562 401.316406 477.375 405.046875 477.375 C 408.777344 477.375 411.796875 474.351562 411.796875 470.625 L 411.796875 443.945312 L 422.535156 433.207031 C 423.472656 433.25 424.515625 433.28125 425.769531 433.28125 C 435.367188 433.28125 453.292969 431.535156 465.042969 419.777344 C 481.367188 403.457031 478.332031 375.160156 478.195312 373.960938 C 477.839844 370.84375 475.378906 368.382812 472.261719 368.023438 C 471.042969 367.894531 442.757812 364.851562 426.441406 381.175781 C 413.207031 394.414062 412.660156 415.449219 413.007812 423.644531 L 411.796875 424.855469 L 411.796875 371.277344 C 444.074219 367.863281 469.308594 340.488281 469.308594 307.324219 C 469.308594 271.855469 440.449219 243 404.980469 243 C 369.507812 243 340.65625 271.855469 340.65625 307.324219 C 340.65625 340.535156 365.957031 367.945312 398.296875 371.296875 L 398.296875 424.949219 L 396.992188 423.644531 C 397.339844 415.453125 396.792969 394.414062 383.558594 381.175781 Z M 354.5 410.234375 C 346.453125 402.183594 345.074219 388.835938 345 381.246094 C 352.613281 381.332031 366.015625 382.726562 374.011719 390.722656 C 379.035156 395.746094 381.464844 402.8125 382.605469 409.261719 L 377.800781 404.460938 C 375.164062 401.824219 370.894531 401.824219 368.257812 404.460938 C 365.621094 407.097656 365.621094 411.371094 368.257812 414.003906 L 373.09375 418.839844 C 366.628906 417.703125 359.539062 415.269531 354.5 410.234375 Z M 435.988281 390.722656 C 444.035156 382.671875 457.386719 381.296875 464.980469 381.226562 C 464.886719 388.832031 463.496094 402.238281 455.5 410.234375 C 450.460938 415.273438 443.363281 417.707031 436.894531 418.84375 L 441.734375 414.003906 C 444.371094 411.367188 444.371094 407.097656 441.734375 404.460938 C 439.097656 401.824219 434.828125 401.824219 432.191406 404.460938 L 427.433594 409.214844 C 428.582031 402.757812 431.007812 395.703125 435.988281 390.722656 Z M 393.226562 334.8125 C 400.820312 335.375 408.597656 335.410156 416.660156 334.816406 C 413.320312 350.085938 407.789062 358.148438 404.980469 358.148438 C 402.070312 358.148438 396.527344 350.242188 393.226562 334.8125 Z M 354.15625 307.324219 C 354.15625 304.410156 362.0625 298.867188 377.496094 295.566406 C 376.929688 303.15625 376.894531 310.941406 377.492188 319 C 362.222656 315.660156 354.15625 310.132812 354.15625 307.324219 Z M 391.191406 293.53125 C 400.363281 292.6875 409.5625 292.683594 418.75 293.53125 C 419.601562 302.441406 419.660156 311.574219 418.753906 321.089844 C 409.777344 321.945312 400.644531 321.992188 391.191406 321.089844 C 390.347656 311.917969 390.34375 302.71875 391.191406 293.53125 Z M 404.980469 256.5 C 407.789062 256.5 413.320312 264.5625 416.660156 279.828125 C 409.03125 279.265625 401.253906 279.238281 393.226562 279.835938 C 396.527344 264.40625 402.070312 256.5 404.980469 256.5 Z M 455.808594 307.324219 C 455.808594 310.132812 447.746094 315.664062 432.476562 319 C 433.039062 311.40625 433.070312 303.625 432.472656 295.566406 C 447.902344 298.867188 455.808594 304.410156 455.808594 307.324219 Z M 424.65625 354.179688 C 427.324219 348.140625 429.351562 340.914062 430.726562 333.066406 C 438.574219 331.691406 445.800781 329.664062 451.84375 326.996094 C 446.6875 339.222656 436.886719 349.027344 424.65625 354.179688 Z M 451.84375 287.648438 C 445.800781 284.984375 438.574219 282.953125 430.726562 281.578125 C 429.351562 273.730469 427.324219 266.507812 424.65625 260.46875 C 436.886719 265.621094 446.6875 275.421875 451.84375 287.648438 Z M 385.308594 260.464844 C 382.644531 266.507812 380.617188 273.730469 379.238281 281.578125 C 371.390625 282.957031 364.167969 284.984375 358.125 287.648438 C 363.277344 275.421875 373.082031 265.617188 385.308594 260.464844 Z M 358.125 326.996094 C 364.167969 329.664062 371.390625 331.691406 379.238281 333.066406 C 380.617188 340.914062 382.644531 348.140625 385.308594 354.183594 C 373.082031 349.027344 363.277344 339.222656 358.125 326.996094 Z M 358.125 326.996094 " fill-opacity="1" fill-rule="nonzero"/></svg>