<svg xmlns="http://www.w3.org/2000/svg" xmlns:xlink="http://www.w3.org/1999/xlink" width="1080" zoomAndPan="magnify" viewBox="0 0 810 809.999993" height="1080" preserveAspectRatio="xMidYMid meet" version="1.0"><path fill="rgb(0%, 0%, 0%)" d="M 405.191406 243 C 315.992188 243 243.378906 315.550781 243.347656 404.746094 C 243.332031 433.257812 250.800781 461.09375 264.957031 485.621094 L 243 567 L 327.765625 546.972656 C 351.402344 559.867188 378.007812 566.636719 405.09375 566.652344 L 405.15625 566.652344 C 494.339844 566.652344 566.917969 494.085938 566.96875 404.90625 C 567 361.667969 550.1875 321.015625 519.632812 290.429688 C 489.082031 259.859375 448.476562 243.015625 405.191406 243 Z M 405.15625 275.398438 C 439.761719 275.417969 472.28125 288.90625 496.726562 313.335938 C 521.171875 337.800781 534.601562 370.300781 534.566406 404.875 C 534.535156 476.21875 476.503906 534.25 405.125 534.25 C 383.53125 534.234375 362.140625 528.8125 343.300781 518.527344 L 332.382812 512.578125 L 320.328125 515.425781 L 288.4375 522.957031 L 296.21875 494.035156 L 299.730469 481.0625 L 293.023438 469.421875 C 281.714844 449.851562 275.730469 427.476562 275.746094 404.746094 C 275.78125 333.433594 333.828125 275.398438 405.15625 275.398438 Z M 347.921875 330.074219 C 345.214844 330.074219 340.839844 331.085938 337.128906 335.136719 C 333.421875 339.171875 322.957031 348.941406 322.957031 368.835938 C 322.957031 388.726562 337.445312 407.957031 339.472656 410.664062 C 341.480469 413.351562 367.445312 455.464844 408.542969 471.667969 C 442.691406 485.128906 449.628906 482.472656 457.046875 481.792969 C 464.46875 481.128906 480.984375 472.03125 484.355469 462.585938 C 487.722656 453.140625 487.730469 445.015625 486.726562 443.347656 C 485.722656 441.664062 483.027344 440.660156 478.976562 438.632812 C 474.941406 436.609375 455.0625 426.847656 451.351562 425.503906 C 447.644531 424.160156 444.929688 423.476562 442.242188 427.527344 C 439.550781 431.578125 431.824219 440.660156 429.457031 443.347656 C 427.09375 446.054688 424.742188 446.417969 420.695312 444.390625 C 416.644531 442.351562 403.621094 438.070312 388.167969 424.300781 C 376.148438 413.59375 368.035156 400.378906 365.671875 396.332031 C 363.320312 392.296875 365.449219 390.082031 367.472656 388.074219 C 369.289062 386.257812 371.492188 383.351562 373.515625 380.984375 C 375.527344 378.621094 376.222656 376.933594 377.566406 374.246094 C 378.914062 371.554688 378.222656 369.183594 377.21875 367.15625 C 376.214844 365.132812 368.347656 345.164062 364.753906 337.164062 C 361.722656 330.441406 358.523438 330.285156 355.640625 330.171875 C 353.292969 330.074219 350.609375 330.074219 347.921875 330.074219 Z M 347.921875 330.074219 " fill-opacity="1" fill-rule="nonzero"/></svg>